<?xml version="1.0" standalone="no"?><!DOCTYPE svg PUBLIC "-//W3C//DTD SVG 1.1//EN" "http://www.w3.org/Graphics/SVG/1.1/DTD/svg11.dtd"><svg t="1693132723683" class="icon" viewBox="0 0 1024 1024" version="1.1" xmlns="http://www.w3.org/2000/svg" p-id="7539" xmlns:xlink="http://www.w3.org/1999/xlink" width="200" height="200"><path d="M465.018922 127.921872h93.962156c16.250661 0 29.584537 13.333876 29.584537 29.584537v93.962157c0 16.250661-13.333876 29.584537-29.584537 29.584537h-93.962156c-16.250661 0-29.584537-13.333876-29.584537-29.584537v-93.753815c0-16.459003 13.333876-29.792879 29.584537-29.792879z" fill="#EF5350" p-id="7540"></path><path d="M770.8647 743.988606H253.1353c-13.125534 0-23.125941 10.208749-23.125941 23.125941 0 13.125534 10.000407 23.125941 23.125941 23.125941H770.8647c13.125534 0 23.125941-10.208749 23.125941-23.125941 0-12.917192-10.000407-23.125941-23.125941-23.125941z" fill="#FBC02D" p-id="7541"></path><path d="M770.8647 535.646796H253.1353c-13.125534 0-23.125941 10.208749-23.125941 23.125941 0 13.125534 10.000407 23.542625 23.125941 23.542624H770.8647c13.125534 0 23.125941-10.625432 23.125941-23.542624 0-13.125534-10.000407-23.125941-23.125941-23.125941zM253.1353 373.97355H770.8647c13.125534 0 23.125941-10.208749 23.125941-23.125941 0-12.292167-10.208749-23.542625-23.125941-23.542624H253.1353c-13.125534 0-23.125941 11.4588-23.125941 23.542624 0 13.125534 10.208749 23.125941 23.125941 23.125941z" fill="#26A69A" p-id="7542"></path><path d="M672.944049 848.159512H350.639268c-13.125534 0-23.125941 10.625432-23.125941 23.542624 0 13.125534 10.208749 23.125941 23.125941 23.125941H672.944049c13.125534 0 23.125941-10.000407 23.125941-23.125941 0-12.917192-10.000407-23.542625-23.125941-23.542624zM672.944049 686.694608c13.125534 0 23.125941-10.208749 23.125941-23.125941 0-13.125534-10.208749-23.125941-23.125941-23.125941H350.639268c-13.125534 0-23.125941 10.208749-23.125941 23.125941 0 13.125534 10.208749 23.125941 23.125941 23.125941H672.944049z" fill="#F9A825" p-id="7543"></path><path d="M350.639268 431.892574c-13.125534 0-23.125941 10.625432-23.125941 23.542624 0 13.125534 10.208749 23.125941 23.125941 23.125941H672.944049c13.125534 0 23.125941-10.208749 23.125941-23.125941 0-13.125534-10.208749-23.542625-23.125941-23.542624H350.639268z" fill="#4DB6AC" p-id="7544"></path></svg>